<?xml version="1.0" encoding="utf-8"?>
<!-- Generator: Adobe Illustrator 22.0.1, SVG Export Plug-In . SVG Version: 6.00 Build 0)  -->
<svg version="1.1" id="opa_1_" xmlns="http://www.w3.org/2000/svg" xmlns:xlink="http://www.w3.org/1999/xlink" x="0px" y="0px"
	 viewBox="0 0 589 53" style="enable-background:new 0 0 589 53;" xml:space="preserve">
<style type="text/css">
	.st0{fill:#EE8422;}
	.st1{fill:#D91F30;}
	.st2{fill:#73B443;}
	.st3{fill:#06809C;}
	.st4{fill:#F28431;}
	.st5{fill:#DA233A;}
	.st6{fill:#6FBC59;}
	.st7{fill:#FFFFFF;}
</style>
<g id="OPA_pratique">
	<g>
		<path class="st0" d="M115.4,4.4c12.4,0,18.8,9.8,18.8,21.8c0,13-6.6,22-18.8,22c-12.1,0-18.8-9.5-18.8-21.7
			C96.6,14.1,103.3,4.4,115.4,4.4z M115.4,11.3c-6.9,0-10.1,6.3-10.1,15.2s3.2,14.9,10.1,14.9c6.9,0,10.1-6.3,10.1-15
			C125.4,17.8,122.4,11.3,115.4,11.3z"/>
		<path class="st1" d="M148.3,46.3c0,0.7-0.5,1.2-1.3,1.2h-5.7c-0.7,0-1.2-0.5-1.2-1.2V6.7c0-0.7,0.5-1.3,1.2-1.4
			c2.9-0.2,6.5-0.4,10.8-0.4c8.9,0,16.7,3,16.7,13c0,9.1-6.2,14-15.6,13.8c-0.7,0-4.2-0.1-4.9-0.1V46.3z M160.4,18.1
			c0-4.7-2.8-6.4-7.7-6.4c-1.9,0-3.4,0.1-4.4,0.2v13c1,0.1,2,0.2,3.2,0.2C156.8,25.1,160.4,22.8,160.4,18.1z"/>
		<path class="st2" d="M195.9,47.6c-0.7,0-1.4-0.5-1.6-1.2l-2.8-9.6h-12.3c-0.4,1.8-1.9,6.8-2.7,9.6c-0.2,0.7-0.8,1.2-1.6,1.2h-6.2
			c-0.7,0-1.1-0.6-0.9-1.2l12-40.1c0.2-0.7,0.9-1.2,1.6-1.2h8.3c0.8,0,1.4,0.5,1.6,1.2l12,40.1c0.2,0.6-0.2,1.2-0.9,1.2H195.9z
			 M184.1,17.1l-3.3,13h9.3l-3.4-13l-1.2-5h-0.2L184.1,17.1z"/>
		<path class="st3" d="M233.2,46.3c0,0.7-0.5,1.2-1.3,1.2h-5.7c-0.7,0-1.2-0.5-1.2-1.2V6.7c0-0.7,0.5-1.3,1.2-1.4
			c2.9-0.2,6.5-0.4,10.8-0.4c8.9,0,16.7,3,16.7,13c0,9.1-6.2,14-15.6,13.8c-0.7,0-4.2-0.1-4.9-0.1V46.3z M245.3,18.1
			c0-4.7-2.8-6.4-7.7-6.4c-1.9,0-3.4,0.1-4.4,0.2v13c1,0.1,2,0.2,3.2,0.2C241.7,25.1,245.3,22.8,245.3,18.1z"/>
		<path class="st3" d="M289.3,46.5c0.2,0.5-0.1,1.1-0.7,1.1H282c-0.8,0-1.4-0.4-1.8-1.2L273,30.6h-5.3v15.7c0,0.7-0.5,1.2-1.3,1.2
			h-5.7c-0.7,0-1.2-0.5-1.2-1.2V6.7c0-0.7,0.5-1.3,1.2-1.4c3.2-0.2,7.1-0.4,11.1-0.4c11,0,16.4,4,16.4,12.3c0,5.6-3.3,9.7-7.7,11.2
			L289.3,46.5z M272.4,24.2c4.4,0,7.4-2.4,7.4-6.4c0-4.8-2.8-6.2-7.5-6.2c-2,0-3.5,0.1-4.5,0.2v12.5H272.4z"/>
		<path class="st3" d="M319.5,47.6c-0.7,0-1.4-0.5-1.6-1.2l-2.8-9.6h-12.3c-0.4,1.8-1.9,6.8-2.7,9.6c-0.2,0.7-0.8,1.2-1.6,1.2h-6.2
			c-0.7,0-1.1-0.6-0.9-1.2l12-40.1c0.2-0.7,0.9-1.2,1.6-1.2h8.3c0.8,0,1.4,0.5,1.6,1.2l12,40.1c0.2,0.6-0.2,1.2-0.9,1.2H319.5z
			 M307.7,17.1l-3.3,13h9.3l-3.4-13l-1.2-5h-0.2L307.7,17.1z"/>
		<path class="st3" d="M324.6,6.3c0-0.7,0.7-1.2,1.3-1.2h27.4c0.6,0,1.2,0.5,1.2,1.2l-0.4,4.7c0,0.7-0.6,1.3-1.3,1.3h-9.3v34.1
			c0,0.7-0.5,1.2-1.2,1.2h-6c-0.7,0-1.2-0.5-1.2-1.2V12.3h-9.7c-0.7,0-1.2-0.5-1.2-1.3L324.6,6.3z"/>
		<path class="st3" d="M360.2,47.6c-0.7,0-1.2-0.5-1.2-1.2v-40c0-0.7,0.5-1.2,1.2-1.2h5.9c0.7,0,1.3,0.5,1.3,1.2v40
			c0,0.7-0.5,1.2-1.3,1.2H360.2z"/>
		<path class="st3" d="M392.1,4.4c11.5,0,18.8,8.6,18.8,21.8c0,5.2-2.2,11-5.7,14.2l6.4,0.1c0.7,0,1.2,0.5,1.2,1.3l-0.3,4.6
			c0,0.7-0.6,1.2-1.3,1.2h-19.1c-12.2,0-18.8-8.1-18.8-21C373.3,13.3,380.6,4.4,392.1,4.4z M392.1,41.1c6.2,0,10.1-5.2,10.1-14.7
			c0-9.8-3.7-15.1-10.1-15.1c-6.5,0-10.1,5.4-10.1,15.2C382,36,385.8,41.1,392.1,41.1z"/>
		<path class="st3" d="M417.1,6.3c0-0.7,0.6-1.2,1.3-1.2h5.9c0.7,0,1.3,0.5,1.3,1.2V31c0,6.6,2.8,10.4,7.8,10.4c5.3,0,8-3.5,8-10.4
			V6.3c0-0.7,0.6-1.2,1.3-1.2h5.9c0.7,0,1.3,0.5,1.3,1.2v23c0,12.5-5.3,18.9-16.6,18.9c-10.2,0-16-5.6-16-17.6V6.3z"/>
		<path class="st3" d="M465.4,12.1v10.1h13.9c0.6,0,1.1,0.6,1.1,1.2l-0.3,4.5c0,0.7-0.6,1.3-1.3,1.3h-13.4v11.3h16.2
			c0.6,0,1.1,0.6,1.1,1.3l-0.3,4.5c0,0.7-0.6,1.2-1.3,1.2h-22.9c-0.7,0-1.2-0.5-1.2-1.2v-40c0-0.7,0.5-1.2,1.2-1.2h22.4
			c0.7,0,1.2,0.5,1.2,1.2l-0.2,4.5c-0.1,0.7-0.7,1.3-1.3,1.3H465.4z"/>
	</g>
</g>
<g id="Calque_5_xA0_Image_1_">
	<g>
		<polyline class="st4" points="0.5,4.4 0.5,16.8 78.7,16.8 78.7,4.4 0.5,4.4 		"/>
	</g>
	<g>
		<polyline class="st5" points="0.5,21.2 0.5,33.6 78.7,33.6 78.7,21.2 0.5,21.2 		"/>
	</g>
	<g>
		<polyline class="st6" points="0.5,38.1 0.5,50.5 78.7,50.5 78.7,38.1 0.5,38.1 		"/>
	</g>
	<path class="st7" d="M53.8,10.6c0-2.7-2.5-3.7-5-3.7c-2.5,0-5,1.1-5,3.7c0,2.7,2.5,3.7,5,3.7C51.4,14.3,53.8,13.3,53.8,10.6
		L53.8,10.6z M52.1,10.6c0,1.8-1.3,2.6-3.2,2.6c-1.9,0-3.3-0.8-3.3-2.6C45.6,8.8,47,8,48.9,8C50.8,8,52.1,8.8,52.1,10.6L52.1,10.6z
		 M64.5,14.2l-2.8-2.9h0.5c1.5,0,2.3-0.8,2.3-2.1c0-1.4-0.9-2.1-2.4-2.1h-6.3v7.1h1.6v-2.9h2.3l2.6,2.9H64.5L64.5,14.2z M62.9,9.2
		c0,0.6-0.5,1-1.1,1h-4.3V8.2h4.3C62.3,8.2,62.9,8.5,62.9,9.2L62.9,9.2z M74.6,14.2v-1.3h-6.4V7h-1.6v7.1H74.6L74.6,14.2z"/>
	<path class="st7" d="M22.1,26.1c0-1.5-1-2.3-2.4-2.3h-5.6V31h1.5v-2.4h4.1C21.1,28.6,22.1,27.6,22.1,26.1L22.1,26.1z M20.6,26.2
		c0,0.7-0.5,1.2-1.1,1.2h-3.9V25h3.8C20.1,25,20.6,25.4,20.6,26.2L20.6,26.2z M32.2,31.1v-7.3h-1.4v4.6L24,23.7h-0.2V31h1.4v-4.7
		l6.7,4.8H32.2L32.2,31.1z M41.5,31v-1.1h-5.8v-2.2h5.8v-1.1h-5.8V25h5.8v-1.1h-7.3V31H41.5L41.5,31z M51.8,28.3v-4.5h-1.5V28
		c0,1.3-1.2,1.9-2.6,1.9c-1.5,0-2.6-0.6-2.6-1.9v-4.2h-1.5v4.5c0,2.2,2.3,2.8,4.1,2.8C49.4,31.1,51.8,30.5,51.8,28.3L51.8,28.3z
		 M63.9,31v-7.2H63l-4.2,3.5l-4.2-3.5h-0.9V31h1.4v-5l3.6,3h0.1l3.6-3.1v5H63.9L63.9,31z M74.6,27.4c0-2.7-2.2-3.7-4.5-3.7
		c-2.2,0-4.5,1.1-4.5,3.7c0,2.7,2.2,3.7,4.5,3.7C72.4,31.1,74.6,30.1,74.6,27.4L74.6,27.4z M73,27.4c0,1.8-1.2,2.6-2.9,2.6
		c-1.7,0-2.9-0.8-2.9-2.6c0-1.8,1.2-2.6,2.9-2.6C71.8,24.8,73,25.6,73,27.4L73,27.4z"/>
	<path class="st7" d="M17.9,47.8l-4.2-7.2h-1.4l-4.2,7.2h1.8l0.8-1.5h4.5l0.8,1.5H17.9L17.9,47.8z M14.7,45.2h-3.4L13,42L14.7,45.2
		L14.7,45.2z M26.7,47.8v-1.3h-5.8v-5.9h-1.5v7.1H26.7L26.7,47.8z M35.5,47.8v-1.3h-5.8v-5.9h-1.5v7.1H35.5L35.5,47.8z M44.3,47.8
		v-1.1h-5.8v-2.2h5.8v-1.1h-5.8v-1.5h5.8v-1.1H37v7.1H44.3L44.3,47.8z M54.3,47.8l-2.5-2.9h0.4c1.4,0,2-0.8,2-2.1
		c0-1.4-0.8-2.1-2.2-2.1h-5.7v7.1h1.5V45H50l2.4,2.9H54.3L54.3,47.8z M52.8,42.8c0,0.6-0.4,1-1,1h-3.9v-1.9h3.9
		C52.3,41.9,52.8,42.1,52.8,42.8L52.8,42.8z M64.1,41.3l-0.2-0.1c-0.9-0.5-2.2-0.7-3.5-0.7c-2.1,0-4.6,0.9-4.6,3.7
		c0,2.7,2.3,3.7,4.6,3.7c1.3,0,2.8-0.3,3.6-0.6v-3.1h-1.5v2.1c-0.6,0.3-1.3,0.3-2,0.3c-1.9,0-3.2-0.8-3.2-2.5c0-1.7,1.3-2.4,3.2-2.4
		c1.1,0,2.3,0.2,3,0.6l0.2,0.1L64.1,41.3L64.1,41.3z M74.6,44.2c0-2.7-2.2-3.7-4.5-3.7c-2.2,0-4.5,1.1-4.5,3.7
		c0,2.7,2.2,3.7,4.5,3.7C72.4,48,74.6,46.9,74.6,44.2L74.6,44.2z M73,44.2c0,1.8-1.2,2.6-2.9,2.6c-1.7,0-2.9-0.8-2.9-2.6
		c0-1.8,1.2-2.6,2.9-2.6C71.8,41.6,73,42.5,73,44.2L73,44.2z"/>
</g>
</svg>
