<?xml version="1.0" encoding="utf-8"?>
<!-- Generator: Adobe Illustrator 22.0.1, SVG Export Plug-In . SVG Version: 6.00 Build 0)  -->
<svg version="1.1" id="Cardiologie_1_" xmlns="http://www.w3.org/2000/svg" xmlns:xlink="http://www.w3.org/1999/xlink" x="0px"
	 y="0px" viewBox="0 0 589 53" style="enable-background:new 0 0 589 53;" xml:space="preserve">
<style type="text/css">
	.st0{fill:#E30615;}
	.st1{fill:#2C549C;}
</style>
<g id="cardiologie_pratique">
	<g>
		<path class="st0" d="M27.6,39.3c0.5-0.2,1.1,0.2,1.2,0.8l0.5,3.9c0.1,0.5-0.4,1.3-0.9,1.5c-2.1,0.7-5.3,1.2-8.8,1.2
			C7.1,46.7,1,38.2,1,27.4c0-12,7.4-20,19.1-20c3.5,0,6.5,0.5,8.5,1.2c0.5,0.2,1,1,0.9,1.5L28.9,14c-0.1,0.6-0.7,0.9-1.3,0.8
			c-2-0.7-4.4-1.1-7-1.1c-7,0-11.6,4.6-11.6,13.4c0,8.2,4.2,13.3,11.6,13.3C23,40.3,25.6,39.9,27.6,39.3z"/>
		<path class="st0" d="M57.9,46.1c-0.6,0-1.3-0.4-1.5-1.1l-2.5-8.7H42.6c-0.4,1.6-1.8,6.1-2.5,8.7c-0.2,0.7-0.8,1.1-1.5,1.1H33
			c-0.6,0-1-0.5-0.8-1.1l11-36.1c0.2-0.7,0.8-1.1,1.5-1.1h7.6c0.7,0,1.3,0.4,1.5,1.1l11,36.1c0.2,0.5-0.2,1.1-0.8,1.1H57.9z
			 M47,18.7l-3,11.7h8.6l-3.1-11.7l-1.1-4.5h-0.2L47,18.7z"/>
		<path class="st0" d="M96.6,45.1c0.2,0.4-0.1,1-0.7,1h-6c-0.7,0-1.3-0.4-1.6-1l-6.6-14.2h-4.9V45c0,0.6-0.5,1.1-1.2,1.1h-5.3
			c-0.6,0-1.1-0.5-1.1-1.1V9.4c0-0.7,0.5-1.2,1.1-1.3c2.9-0.2,6.5-0.4,10.2-0.4c10.1,0,15,3.6,15,11.1c0,5-3,8.7-7.1,10L96.6,45.1z
			 M81.1,25.1c4.1,0,6.7-2.2,6.7-5.8c0-4.3-2.6-5.6-6.9-5.6c-1.9,0-3.2,0.1-4.2,0.2v11.2H81.1z"/>
		<path class="st0" d="M132.9,26.5c0,13.5-7.7,19.9-22.2,19.9c-3.3,0-6-0.1-8.3-0.2c-0.6-0.1-1.1-0.5-1.1-1.2V9.4
			c0-0.7,0.5-1.2,1.1-1.3c3.2-0.3,6.9-0.4,10.6-0.4C126.3,7.7,132.9,14.9,132.9,26.5z M108.8,40.1c0.8,0.1,1.9,0.1,3,0.1
			c8.3,0,13-3.9,13-13.7c0-8.2-4.2-12.8-11.6-12.8c-1.8,0-3.3,0.1-4.3,0.2V40.1z"/>
		<path class="st0" d="M139.3,46.1c-0.6,0-1.1-0.5-1.1-1.1V9c0-0.6,0.5-1.1,1.1-1.1h5.4c0.7,0,1.2,0.5,1.2,1.1v36
			c0,0.6-0.5,1.1-1.2,1.1H139.3z"/>
		<path class="st0" d="M168.5,7.3c11.4,0,17.2,8.8,17.2,19.6c0,11.7-6.1,19.8-17.2,19.8c-11.1,0-17.2-8.6-17.2-19.5
			C151.3,16,157.5,7.3,168.5,7.3z M168.5,13.5c-6.4,0-9.2,5.7-9.2,13.7c0,8,3,13.4,9.2,13.4c6.3,0,9.2-5.7,9.2-13.5
			C177.7,19.3,175,13.5,168.5,13.5z"/>
		<path class="st0" d="M198.8,39.7h14.5c0.6,0,1.1,0.5,1.1,1.1l-0.3,4.2c0,0.6-0.6,1.1-1.2,1.1h-20.6c-0.6,0-1.1-0.5-1.1-1.1V9
			c0-0.6,0.5-1.1,1.1-1.1h5.4c0.7,0,1.2,0.5,1.2,1.1V39.7z"/>
		<path class="st0" d="M234.5,7.3c11.4,0,17.2,8.8,17.2,19.6c0,11.7-6.1,19.8-17.2,19.8c-11.1,0-17.2-8.6-17.2-19.5
			C217.2,16,223.4,7.3,234.5,7.3z M234.5,13.5c-6.4,0-9.2,5.7-9.2,13.7c0,8,3,13.4,9.2,13.4c6.3,0,9.2-5.7,9.2-13.5
			C243.7,19.3,240.9,13.5,234.5,13.5z"/>
		<path class="st0" d="M285.4,25.3c0.6,0,1.2,0.5,1.2,1.1v17.1c0,0.7-0.5,1.3-1.1,1.4c-2.7,0.9-6.8,1.6-10.8,1.6
			c-12.8,0-19.1-8-19.1-19.3c0-11.7,7.4-19.8,19.8-19.8c3.6,0,6.9,0.6,9.2,1.3c0.5,0.2,0.9,0.9,0.9,1.5l-0.7,4
			c-0.1,0.6-0.8,0.9-1.3,0.8c-2.2-0.8-4.7-1.2-7.9-1.2c-7.2,0-12,4.6-12,13.2c0,8.4,4.5,13.3,11.6,13.3c1.7,0,3.1-0.2,3.9-0.5v-8.4
			h-4.6c-0.5,0-1-0.5-1-1.1l0.3-4c0-0.6,0.5-1.1,1.2-1.1H285.4z"/>
		<path class="st0" d="M294.1,46.1c-0.6,0-1.1-0.5-1.1-1.1V9c0-0.6,0.5-1.1,1.1-1.1h5.4c0.7,0,1.2,0.5,1.2,1.1v36
			c0,0.6-0.5,1.1-1.2,1.1H294.1z"/>
		<path class="st0" d="M315.2,14.2v9.1H328c0.5,0,1,0.5,1,1.1l-0.3,4c0,0.6-0.5,1.1-1.2,1.1h-12.3v10.2h14.9c0.5,0,1,0.5,1,1.1
			l-0.3,4c0,0.6-0.5,1.1-1.2,1.1h-21c-0.6,0-1.1-0.5-1.1-1.1V9c0-0.6,0.5-1.1,1.1-1.1h20.6c0.6,0,1.1,0.5,1.1,1.1l-0.2,4.1
			c-0.1,0.7-0.6,1.1-1.2,1.1H315.2z"/>
		<path class="st1" d="M359.5,45c0,0.6-0.5,1.1-1.2,1.1H353c-0.6,0-1.1-0.5-1.1-1.1V9.4c0-0.7,0.5-1.2,1.1-1.3
			c2.7-0.2,6-0.4,9.9-0.4c8.2,0,15.3,2.7,15.3,11.7c0,8.2-5.7,12.6-14.3,12.5c-0.6,0-3.9-0.1-4.5-0.1V45z M370.5,19.6
			c0-4.3-2.6-5.8-7.1-5.8c-1.7,0-3.1,0.1-4,0.2v11.7c0.9,0.1,1.8,0.2,3,0.2C367.2,25.9,370.5,23.8,370.5,19.6z"/>
		<path class="st1" d="M410.9,45.1c0.2,0.4-0.1,1-0.7,1h-6c-0.7,0-1.3-0.4-1.6-1L396,30.9h-4.9V45c0,0.6-0.5,1.1-1.2,1.1h-5.3
			c-0.6,0-1.1-0.5-1.1-1.1V9.4c0-0.7,0.5-1.2,1.1-1.3c2.9-0.2,6.5-0.4,10.2-0.4c10.1,0,15,3.6,15,11.1c0,5-3,8.7-7.1,10L410.9,45.1z
			 M395.4,25.1c4.1,0,6.7-2.2,6.7-5.8c0-4.3-2.6-5.6-6.9-5.6c-1.9,0-3.2,0.1-4.2,0.2v11.2H395.4z"/>
		<path class="st1" d="M438.6,46.1c-0.6,0-1.3-0.4-1.5-1.1l-2.5-8.7h-11.2c-0.4,1.6-1.8,6.1-2.5,8.7c-0.2,0.7-0.8,1.1-1.5,1.1h-5.7
			c-0.6,0-1-0.5-0.8-1.1l11-36.1c0.2-0.7,0.8-1.1,1.5-1.1h7.6c0.7,0,1.3,0.4,1.5,1.1l11,36.1c0.2,0.5-0.2,1.1-0.8,1.1H438.6z
			 M427.8,18.7l-3,11.7h8.6l-3.1-11.7l-1.1-4.5h-0.2L427.8,18.7z"/>
		<path class="st1" d="M443.2,9c0-0.6,0.6-1.1,1.2-1.1h25.1c0.5,0,1.1,0.5,1.1,1.1l-0.3,4.2c0,0.7-0.5,1.1-1.2,1.1h-8.6V45
			c0,0.6-0.5,1.1-1.1,1.1H454c-0.6,0-1.1-0.5-1.1-1.1V14.3H444c-0.6,0-1.1-0.5-1.1-1.1L443.2,9z"/>
		<path class="st1" d="M475.9,46.1c-0.6,0-1.1-0.5-1.1-1.1V9c0-0.6,0.5-1.1,1.1-1.1h5.4c0.7,0,1.2,0.5,1.2,1.1v36
			c0,0.6-0.5,1.1-1.2,1.1H475.9z"/>
		<path class="st1" d="M505.1,7.3c10.5,0,17.2,7.8,17.2,19.6c0,4.7-2,9.9-5.2,12.8l5.9,0.1c0.7,0,1.1,0.5,1.1,1.1l-0.3,4.2
			c0,0.6-0.5,1.1-1.2,1.1h-17.5c-11.2,0-17.2-7.3-17.2-18.9C487.9,15.3,494.6,7.3,505.1,7.3z M505.1,40.3c5.7,0,9.2-4.6,9.2-13.2
			c0-8.8-3.4-13.6-9.2-13.6c-5.9,0-9.2,4.9-9.2,13.7C495.9,35.7,499.4,40.3,505.1,40.3z"/>
		<path class="st1" d="M528.1,9c0-0.6,0.5-1.1,1.2-1.1h5.4c0.7,0,1.2,0.5,1.2,1.1v22.2c0,5.9,2.6,9.3,7.2,9.3c4.8,0,7.4-3.2,7.4-9.3
			V9c0-0.6,0.5-1.1,1.2-1.1h5.4c0.6,0,1.2,0.5,1.2,1.1v20.7c0,11.2-4.8,17-15.2,17c-9.3,0-14.7-5-14.7-15.8V9z"/>
		<path class="st1" d="M572.4,14.2v9.1h12.7c0.5,0,1,0.5,1,1.1l-0.3,4c0,0.6-0.5,1.1-1.2,1.1h-12.3v10.2h14.9c0.5,0,1,0.5,1,1.1
			l-0.3,4c0,0.6-0.5,1.1-1.2,1.1h-21c-0.6,0-1.1-0.5-1.1-1.1V9c0-0.6,0.5-1.1,1.1-1.1h20.6c0.6,0,1.1,0.5,1.1,1.1l-0.2,4.1
			c-0.1,0.7-0.6,1.1-1.2,1.1H572.4z"/>
	</g>
</g>
</svg>
